<svg width="86" height="53" viewBox="0 0 86 53" fill="none" xmlns="http://www.w3.org/2000/svg">
<path d="M8.8 52.72C7.06667 52.72 5.53333 52.3733 4.2 51.68C2.86667 50.96 1.82667 49.96 1.08 48.68C0.36 47.4 0 45.92 0 44.24V32.48C0 30.8 0.36 29.3333 1.08 28.08C1.82667 26.8 2.86667 25.8133 4.2 25.12C5.53333 24.4267 7.06667 24.08 8.8 24.08C10.5333 24.08 12.0667 24.4267 13.4 25.12C14.7333 25.7867 15.76 26.7467 16.48 28C17.2267 29.2267 17.6 30.6667 17.6 32.32V32.56C17.6 32.6933 17.5467 32.8133 17.44 32.92C17.36 33.0267 17.2533 33.08 17.12 33.08L13.4 33.24C13.08 33.24 12.92 33.08 12.92 32.76V32.28C12.92 31.0267 12.5333 30.0133 11.76 29.24C11.0133 28.4667 10.0267 28.08 8.8 28.08C7.54667 28.08 6.53333 28.4667 5.76 29.24C5.01333 30.0133 4.64 31.0267 4.64 32.28V44.56C4.64 45.8133 5.01333 46.8267 5.76 47.6C6.53333 48.3467 7.54667 48.72 8.8 48.72C10.0267 48.72 11.0133 48.3467 11.76 47.6C12.5333 46.8267 12.92 45.8133 12.92 44.56V44.04C12.92 43.7467 13.08 43.6 13.4 43.6L17.12 43.76C17.2533 43.76 17.36 43.8133 17.44 43.92C17.5467 44 17.6 44.1067 17.6 44.24V44.4C17.6 46.0533 17.2267 47.52 16.48 48.8C15.76 50.0533 14.7333 51.0267 13.4 51.72C12.0667 52.3867 10.5333 52.72 8.8 52.72Z" fill="#FAFAFA"/>
<path d="M21.9281 52.4C21.7948 52.4 21.6748 52.36 21.5681 52.28C21.4881 52.1733 21.4481 52.0533 21.4481 51.92V24.88C21.4481 24.7467 21.4881 24.64 21.5681 24.56C21.6748 24.4533 21.7948 24.4 21.9281 24.4H25.6081C25.7415 24.4 25.8481 24.4533 25.9281 24.56C26.0348 24.64 26.0881 24.7467 26.0881 24.88V51.92C26.0881 52.0533 26.0348 52.1733 25.9281 52.28C25.8481 52.36 25.7415 52.4 25.6081 52.4H21.9281Z" fill="#FAFAFA"/>
<path d="M32.7981 29.16C31.9715 29.16 31.2915 28.8933 30.7581 28.36C30.2515 27.8267 29.9981 27.1467 29.9981 26.32C29.9981 25.4933 30.2515 24.8133 30.7581 24.28C31.2915 23.7467 31.9715 23.48 32.7981 23.48C33.6515 23.48 34.3315 23.7467 34.8381 24.28C35.3715 24.7867 35.6381 25.4667 35.6381 26.32C35.6381 27.1467 35.3715 27.8267 34.8381 28.36C34.3048 28.8933 33.6248 29.16 32.7981 29.16ZM30.9581 52.4C30.8248 52.4 30.7048 52.36 30.5981 52.28C30.5181 52.1733 30.4781 52.0533 30.4781 51.92V32.4C30.4781 32.2667 30.5181 32.16 30.5981 32.08C30.7048 31.9733 30.8248 31.92 30.9581 31.92H34.6381C34.7715 31.92 34.8781 31.9733 34.9581 32.08C35.0648 32.16 35.1181 32.2667 35.1181 32.4V51.92C35.1181 52.0533 35.0648 52.1733 34.9581 52.28C34.8781 52.36 34.7715 52.4 34.6381 52.4H30.9581Z" fill="#FAFAFA"/>
<path d="M59.5322 31.64C61.4255 31.64 62.8789 32.2533 63.8922 33.48C64.9322 34.7067 65.4522 36.4133 65.4522 38.6V51.92C65.4522 52.0533 65.3989 52.1733 65.2922 52.28C65.2122 52.36 65.1055 52.4 64.9722 52.4H61.3322C61.1989 52.4 61.0789 52.36 60.9722 52.28C60.8922 52.1733 60.8522 52.0533 60.8522 51.92V39.24C60.8522 38.12 60.5855 37.24 60.0522 36.6C59.5189 35.96 58.8122 35.64 57.9322 35.64C56.9989 35.64 56.2522 35.96 55.6922 36.6C55.1589 37.24 54.8922 38.1067 54.8922 39.2V51.92C54.8922 52.0533 54.8389 52.1733 54.7322 52.28C54.6522 52.36 54.5455 52.4 54.4122 52.4H50.7322C50.5989 52.4 50.4789 52.36 50.3722 52.28C50.2922 52.1733 50.2522 52.0533 50.2522 51.92V39.24C50.2522 38.12 49.9855 37.24 49.4522 36.6C48.9189 35.96 48.2122 35.64 47.3322 35.64C46.3989 35.64 45.6522 35.96 45.0922 36.6C44.5589 37.24 44.2922 38.1067 44.2922 39.2V51.92C44.2922 52.0533 44.2389 52.1733 44.1322 52.28C44.0522 52.36 43.9455 52.4 43.8122 52.4H40.1722C40.0389 52.4 39.9189 52.36 39.8122 52.28C39.7322 52.1733 39.6922 52.0533 39.6922 51.92V32.44C39.6922 32.3067 39.7322 32.2 39.8122 32.12C39.9189 32.0133 40.0389 31.96 40.1722 31.96H43.8122C43.9455 31.96 44.0522 32.0133 44.1322 32.12C44.2389 32.2 44.2922 32.3067 44.2922 32.44V33.44C44.2922 33.52 44.3189 33.5733 44.3722 33.6C44.4255 33.6 44.4789 33.5733 44.5322 33.52C45.6255 32.2667 47.1055 31.64 48.9722 31.64C50.1455 31.64 51.1589 31.8933 52.0122 32.4C52.8655 32.88 53.5322 33.5733 54.0122 34.48C54.0655 34.5333 54.1189 34.56 54.1722 34.56C54.2255 34.56 54.2655 34.5067 54.2922 34.4C54.9055 33.44 55.6655 32.7467 56.5722 32.32C57.5055 31.8667 58.4922 31.64 59.5322 31.64Z" fill="#FAFAFA"/>
<path d="M85.175 37.72C85.415 39.08 85.535 40.5467 85.535 42.12C85.535 43.7467 85.3883 45.2533 85.095 46.64C84.615 48.6667 83.8683 50.1867 82.855 51.2C81.8417 52.2133 80.5083 52.72 78.855 52.72C76.9617 52.72 75.5083 52.08 74.495 50.8C74.4417 50.72 74.3883 50.6933 74.335 50.72C74.2817 50.7467 74.255 50.8 74.255 50.88V51.92C74.255 52.0533 74.2017 52.1733 74.095 52.28C74.015 52.36 73.9083 52.4 73.775 52.4H70.095C69.9617 52.4 69.8417 52.36 69.735 52.28C69.655 52.1733 69.615 52.0533 69.615 51.92V24.88C69.615 24.7467 69.655 24.64 69.735 24.56C69.8417 24.4533 69.9617 24.4 70.095 24.4H73.775C73.9083 24.4 74.015 24.4533 74.095 24.56C74.2017 24.64 74.255 24.7467 74.255 24.88V33.4C74.255 33.48 74.2817 33.5333 74.335 33.56C74.3883 33.56 74.4417 33.52 74.495 33.44C75.4283 32.24 76.8283 31.64 78.695 31.64C82.1883 31.64 84.3483 33.6667 85.175 37.72ZM80.455 46.16C80.7217 45.2267 80.855 43.8933 80.855 42.16C80.855 40.4267 80.695 39.04 80.375 38C79.815 36.4267 78.8417 35.64 77.455 35.64C76.0683 35.64 75.1617 36.44 74.735 38.04C74.4417 38.9733 74.295 40.3467 74.295 42.16C74.295 43.92 74.4283 45.2667 74.695 46.2C75.1483 47.88 76.0817 48.72 77.495 48.72C78.9883 48.72 79.975 47.8667 80.455 46.16Z" fill="#FAFAFA"/>
<path d="M34.936 22.656C33.5493 22.656 32.3227 22.368 31.256 21.792C30.1893 21.216 29.3573 20.4053 28.76 19.36C28.184 18.2933 27.896 17.0667 27.896 15.68V0.384001C27.896 0.277334 27.928 0.192001 27.992 0.128C28.0773 0.0426668 28.1733 0 28.28 0H31.224C31.3307 0 31.416 0.0426668 31.48 0.128C31.5653 0.192001 31.608 0.277334 31.608 0.384001V15.872C31.608 16.9387 31.9067 17.8027 32.504 18.464C33.1227 19.1253 33.9333 19.456 34.936 19.456C35.9387 19.456 36.7493 19.1253 37.368 18.464C37.9867 17.8027 38.296 16.9387 38.296 15.872V0.384001C38.296 0.277334 38.328 0.192001 38.392 0.128C38.4773 0.0426668 38.5733 0 38.68 0H41.624C41.7307 0 41.816 0.0426668 41.88 0.128C41.9653 0.192001 42.008 0.277334 42.008 0.384001V15.68C42.008 17.0667 41.7093 18.2933 41.112 19.36C40.536 20.4053 39.7147 21.216 38.648 21.792C37.5813 22.368 36.344 22.656 34.936 22.656Z" fill="#FAFAFA"/>
<path d="M58.1245 10.656C58.3592 11.744 58.4765 12.9493 58.4765 14.272C58.4765 15.5093 58.3805 16.672 58.1885 17.76C57.5272 21.024 55.7992 22.656 53.0045 22.656C51.5112 22.656 50.3912 22.176 49.6445 21.216C49.6018 21.152 49.5592 21.1307 49.5165 21.152C49.4738 21.152 49.4525 21.184 49.4525 21.248V28.064C49.4525 28.1707 49.4098 28.256 49.3245 28.32C49.2605 28.4053 49.1752 28.448 49.0685 28.448H46.1245C46.0178 28.448 45.9218 28.4053 45.8365 28.32C45.7725 28.256 45.7405 28.1707 45.7405 28.064V6.432C45.7405 6.32533 45.7725 6.24 45.8365 6.176C45.9218 6.09067 46.0178 6.048 46.1245 6.048H49.0685C49.1752 6.048 49.2605 6.09067 49.3245 6.176C49.4098 6.24 49.4525 6.32533 49.4525 6.432V7.264C49.4525 7.328 49.4738 7.37067 49.5165 7.392C49.5592 7.41333 49.6018 7.392 49.6445 7.328C50.4552 6.304 51.6178 5.792 53.1325 5.792C54.4552 5.792 55.5218 6.19733 56.3325 7.008C57.1645 7.81867 57.7618 9.03467 58.1245 10.656ZM54.3485 17.568C54.6045 16.736 54.7325 15.6267 54.7325 14.24C54.7325 12.8533 54.6258 11.7867 54.4125 11.04C54.0285 9.65333 53.2392 8.96 52.0445 8.96C50.8925 8.96 50.1458 9.64267 49.8045 11.008C49.5912 11.7547 49.4845 12.832 49.4845 14.24C49.4845 15.6693 49.6018 16.7573 49.8365 17.504C50.1778 18.8053 50.9032 19.456 52.0125 19.456C53.1218 19.456 53.9005 18.8267 54.3485 17.568Z" fill="#FAFAFA"/>
</svg>
